<mxfile host="app.diagrams.net" modified="2024-05-31T12:05:33.918Z" agent="Mozilla/5.0 (Windows NT 10.0; Win64; x64) AppleWebKit/537.36 (KHTML, like Gecko) Chrome/125.0.0.0 Safari/537.36" etag="yyQJhFxk7ObbWaJ1j-oE" version="24.4.9" type="device">
  <diagram id="bc47vRQSer-DN1HRI0ml" name="Page-1">
    <mxGraphModel dx="882" dy="578" grid="1" gridSize="10" guides="1" tooltips="1" connect="1" arrows="1" fold="1" page="1" pageScale="1" pageWidth="850" pageHeight="1100" math="0" shadow="0">
      <root>
        <mxCell id="0" />
        <mxCell id="1" parent="0" />
        <mxCell id="67s3HKJAvQEWxq8m1dnF-1" value="" style="swimlane;startSize=0;" vertex="1" parent="1">
          <mxGeometry x="280" y="40" width="520" height="440" as="geometry" />
        </mxCell>
        <mxCell id="67s3HKJAvQEWxq8m1dnF-27" style="edgeStyle=orthogonalEdgeStyle;rounded=0;orthogonalLoop=1;jettySize=auto;html=1;exitX=0;exitY=0.5;exitDx=0;exitDy=0;" edge="1" parent="67s3HKJAvQEWxq8m1dnF-1" source="67s3HKJAvQEWxq8m1dnF-2" target="67s3HKJAvQEWxq8m1dnF-10">
          <mxGeometry relative="1" as="geometry" />
        </mxCell>
        <mxCell id="67s3HKJAvQEWxq8m1dnF-2" value="Market data publisher" style="rounded=1;whiteSpace=wrap;html=1;" vertex="1" parent="67s3HKJAvQEWxq8m1dnF-1">
          <mxGeometry x="400" y="40" width="80" height="40" as="geometry" />
        </mxCell>
        <mxCell id="67s3HKJAvQEWxq8m1dnF-25" style="edgeStyle=orthogonalEdgeStyle;rounded=0;orthogonalLoop=1;jettySize=auto;html=1;exitX=0;exitY=0.5;exitDx=0;exitDy=0;entryX=1;entryY=0.5;entryDx=0;entryDy=0;" edge="1" parent="67s3HKJAvQEWxq8m1dnF-1" source="67s3HKJAvQEWxq8m1dnF-4" target="67s3HKJAvQEWxq8m1dnF-5">
          <mxGeometry relative="1" as="geometry" />
        </mxCell>
        <mxCell id="67s3HKJAvQEWxq8m1dnF-26" style="edgeStyle=orthogonalEdgeStyle;rounded=0;orthogonalLoop=1;jettySize=auto;html=1;exitX=0.5;exitY=0;exitDx=0;exitDy=0;" edge="1" parent="67s3HKJAvQEWxq8m1dnF-1" source="67s3HKJAvQEWxq8m1dnF-4" target="67s3HKJAvQEWxq8m1dnF-2">
          <mxGeometry relative="1" as="geometry" />
        </mxCell>
        <mxCell id="67s3HKJAvQEWxq8m1dnF-4" value="Matching engine" style="rounded=1;whiteSpace=wrap;html=1;" vertex="1" parent="67s3HKJAvQEWxq8m1dnF-1">
          <mxGeometry x="400" y="200" width="80" height="40" as="geometry" />
        </mxCell>
        <mxCell id="67s3HKJAvQEWxq8m1dnF-23" style="edgeStyle=orthogonalEdgeStyle;rounded=0;orthogonalLoop=1;jettySize=auto;html=1;exitX=0;exitY=0.5;exitDx=0;exitDy=0;entryX=1;entryY=0.5;entryDx=0;entryDy=0;" edge="1" parent="67s3HKJAvQEWxq8m1dnF-1" source="67s3HKJAvQEWxq8m1dnF-5" target="67s3HKJAvQEWxq8m1dnF-8">
          <mxGeometry relative="1" as="geometry" />
        </mxCell>
        <mxCell id="67s3HKJAvQEWxq8m1dnF-24" style="edgeStyle=orthogonalEdgeStyle;rounded=0;orthogonalLoop=1;jettySize=auto;html=1;exitX=1;exitY=0.5;exitDx=0;exitDy=0;entryX=0;entryY=0.5;entryDx=0;entryDy=0;" edge="1" parent="67s3HKJAvQEWxq8m1dnF-1" source="67s3HKJAvQEWxq8m1dnF-5" target="67s3HKJAvQEWxq8m1dnF-4">
          <mxGeometry relative="1" as="geometry" />
        </mxCell>
        <mxCell id="67s3HKJAvQEWxq8m1dnF-5" value="Sequencer" style="rounded=1;whiteSpace=wrap;html=1;" vertex="1" parent="67s3HKJAvQEWxq8m1dnF-1">
          <mxGeometry x="280" y="200" width="80" height="40" as="geometry" />
        </mxCell>
        <mxCell id="67s3HKJAvQEWxq8m1dnF-20" style="edgeStyle=orthogonalEdgeStyle;rounded=0;orthogonalLoop=1;jettySize=auto;html=1;exitX=1;exitY=0.5;exitDx=0;exitDy=0;entryX=0;entryY=0.5;entryDx=0;entryDy=0;" edge="1" parent="67s3HKJAvQEWxq8m1dnF-1" source="67s3HKJAvQEWxq8m1dnF-6" target="67s3HKJAvQEWxq8m1dnF-8">
          <mxGeometry relative="1" as="geometry" />
        </mxCell>
        <mxCell id="67s3HKJAvQEWxq8m1dnF-6" value="Client gateway" style="rounded=1;whiteSpace=wrap;html=1;" vertex="1" parent="67s3HKJAvQEWxq8m1dnF-1">
          <mxGeometry x="40" y="200" width="80" height="40" as="geometry" />
        </mxCell>
        <mxCell id="67s3HKJAvQEWxq8m1dnF-21" style="edgeStyle=orthogonalEdgeStyle;rounded=0;orthogonalLoop=1;jettySize=auto;html=1;exitX=0;exitY=0.5;exitDx=0;exitDy=0;entryX=1;entryY=0.5;entryDx=0;entryDy=0;" edge="1" parent="67s3HKJAvQEWxq8m1dnF-1" source="67s3HKJAvQEWxq8m1dnF-8" target="67s3HKJAvQEWxq8m1dnF-6">
          <mxGeometry relative="1" as="geometry" />
        </mxCell>
        <mxCell id="67s3HKJAvQEWxq8m1dnF-22" style="edgeStyle=orthogonalEdgeStyle;rounded=0;orthogonalLoop=1;jettySize=auto;html=1;exitX=1;exitY=0.5;exitDx=0;exitDy=0;entryX=0;entryY=0.5;entryDx=0;entryDy=0;" edge="1" parent="67s3HKJAvQEWxq8m1dnF-1" source="67s3HKJAvQEWxq8m1dnF-8" target="67s3HKJAvQEWxq8m1dnF-5">
          <mxGeometry relative="1" as="geometry" />
        </mxCell>
        <mxCell id="67s3HKJAvQEWxq8m1dnF-29" style="edgeStyle=orthogonalEdgeStyle;rounded=0;orthogonalLoop=1;jettySize=auto;html=1;exitX=0.5;exitY=1;exitDx=0;exitDy=0;entryX=0.5;entryY=0;entryDx=0;entryDy=0;" edge="1" parent="67s3HKJAvQEWxq8m1dnF-1" source="67s3HKJAvQEWxq8m1dnF-8" target="67s3HKJAvQEWxq8m1dnF-11">
          <mxGeometry relative="1" as="geometry" />
        </mxCell>
        <mxCell id="67s3HKJAvQEWxq8m1dnF-31" style="edgeStyle=orthogonalEdgeStyle;rounded=0;orthogonalLoop=1;jettySize=auto;html=1;exitX=0.5;exitY=0;exitDx=0;exitDy=0;" edge="1" parent="67s3HKJAvQEWxq8m1dnF-1" source="67s3HKJAvQEWxq8m1dnF-8" target="67s3HKJAvQEWxq8m1dnF-9">
          <mxGeometry relative="1" as="geometry" />
        </mxCell>
        <mxCell id="67s3HKJAvQEWxq8m1dnF-8" value="Order manager" style="rounded=1;whiteSpace=wrap;html=1;" vertex="1" parent="67s3HKJAvQEWxq8m1dnF-1">
          <mxGeometry x="160" y="200" width="80" height="40" as="geometry" />
        </mxCell>
        <mxCell id="67s3HKJAvQEWxq8m1dnF-32" style="edgeStyle=orthogonalEdgeStyle;rounded=0;orthogonalLoop=1;jettySize=auto;html=1;exitX=0.5;exitY=1;exitDx=0;exitDy=0;entryX=0.5;entryY=0;entryDx=0;entryDy=0;" edge="1" parent="67s3HKJAvQEWxq8m1dnF-1" source="67s3HKJAvQEWxq8m1dnF-9" target="67s3HKJAvQEWxq8m1dnF-8">
          <mxGeometry relative="1" as="geometry" />
        </mxCell>
        <mxCell id="67s3HKJAvQEWxq8m1dnF-9" value="Risk check" style="rounded=1;whiteSpace=wrap;html=1;" vertex="1" parent="67s3HKJAvQEWxq8m1dnF-1">
          <mxGeometry x="160" y="120" width="80" height="40" as="geometry" />
        </mxCell>
        <mxCell id="67s3HKJAvQEWxq8m1dnF-10" value="Data service" style="rounded=1;whiteSpace=wrap;html=1;" vertex="1" parent="67s3HKJAvQEWxq8m1dnF-1">
          <mxGeometry x="40" y="40" width="80" height="40" as="geometry" />
        </mxCell>
        <mxCell id="67s3HKJAvQEWxq8m1dnF-30" style="edgeStyle=orthogonalEdgeStyle;rounded=0;orthogonalLoop=1;jettySize=auto;html=1;exitX=0.5;exitY=1;exitDx=0;exitDy=0;entryX=0.5;entryY=0;entryDx=0;entryDy=0;" edge="1" parent="67s3HKJAvQEWxq8m1dnF-1" source="67s3HKJAvQEWxq8m1dnF-11" target="67s3HKJAvQEWxq8m1dnF-12">
          <mxGeometry relative="1" as="geometry" />
        </mxCell>
        <mxCell id="67s3HKJAvQEWxq8m1dnF-11" value="Reporter" style="rounded=1;whiteSpace=wrap;html=1;" vertex="1" parent="67s3HKJAvQEWxq8m1dnF-1">
          <mxGeometry x="160" y="280" width="80" height="40" as="geometry" />
        </mxCell>
        <mxCell id="67s3HKJAvQEWxq8m1dnF-12" value="DB" style="rounded=1;whiteSpace=wrap;html=1;" vertex="1" parent="67s3HKJAvQEWxq8m1dnF-1">
          <mxGeometry x="160" y="360" width="80" height="40" as="geometry" />
        </mxCell>
        <mxCell id="67s3HKJAvQEWxq8m1dnF-33" value="Candlestick chart, order book" style="text;html=1;align=center;verticalAlign=middle;whiteSpace=wrap;rounded=0;" vertex="1" parent="67s3HKJAvQEWxq8m1dnF-1">
          <mxGeometry x="200" y="30" width="120" height="30" as="geometry" />
        </mxCell>
        <mxCell id="67s3HKJAvQEWxq8m1dnF-34" value="Stock exchange" style="text;html=1;align=center;verticalAlign=middle;whiteSpace=wrap;rounded=0;" vertex="1" parent="67s3HKJAvQEWxq8m1dnF-1">
          <mxGeometry x="390" y="400" width="130" height="40" as="geometry" />
        </mxCell>
        <mxCell id="67s3HKJAvQEWxq8m1dnF-16" style="edgeStyle=orthogonalEdgeStyle;rounded=0;orthogonalLoop=1;jettySize=auto;html=1;exitX=0;exitY=0.5;exitDx=0;exitDy=0;entryX=1;entryY=0.5;entryDx=0;entryDy=0;" edge="1" parent="1" source="67s3HKJAvQEWxq8m1dnF-13" target="67s3HKJAvQEWxq8m1dnF-14">
          <mxGeometry relative="1" as="geometry" />
        </mxCell>
        <mxCell id="67s3HKJAvQEWxq8m1dnF-18" style="edgeStyle=orthogonalEdgeStyle;rounded=0;orthogonalLoop=1;jettySize=auto;html=1;exitX=1;exitY=0.5;exitDx=0;exitDy=0;" edge="1" parent="1" source="67s3HKJAvQEWxq8m1dnF-13" target="67s3HKJAvQEWxq8m1dnF-6">
          <mxGeometry relative="1" as="geometry" />
        </mxCell>
        <mxCell id="67s3HKJAvQEWxq8m1dnF-28" style="edgeStyle=orthogonalEdgeStyle;rounded=0;orthogonalLoop=1;jettySize=auto;html=1;exitX=0.5;exitY=0;exitDx=0;exitDy=0;entryX=0;entryY=0.5;entryDx=0;entryDy=0;" edge="1" parent="1" source="67s3HKJAvQEWxq8m1dnF-13" target="67s3HKJAvQEWxq8m1dnF-10">
          <mxGeometry relative="1" as="geometry" />
        </mxCell>
        <mxCell id="67s3HKJAvQEWxq8m1dnF-13" value="Broker" style="rounded=1;whiteSpace=wrap;html=1;" vertex="1" parent="1">
          <mxGeometry x="160" y="240" width="80" height="40" as="geometry" />
        </mxCell>
        <mxCell id="67s3HKJAvQEWxq8m1dnF-15" style="edgeStyle=orthogonalEdgeStyle;rounded=0;orthogonalLoop=1;jettySize=auto;html=1;exitX=1;exitY=0.5;exitDx=0;exitDy=0;entryX=0;entryY=0.5;entryDx=0;entryDy=0;" edge="1" parent="1" source="67s3HKJAvQEWxq8m1dnF-14" target="67s3HKJAvQEWxq8m1dnF-13">
          <mxGeometry relative="1" as="geometry" />
        </mxCell>
        <mxCell id="67s3HKJAvQEWxq8m1dnF-14" value="Client" style="rounded=1;whiteSpace=wrap;html=1;" vertex="1" parent="1">
          <mxGeometry x="40" y="240" width="80" height="40" as="geometry" />
        </mxCell>
        <mxCell id="67s3HKJAvQEWxq8m1dnF-19" style="edgeStyle=orthogonalEdgeStyle;rounded=0;orthogonalLoop=1;jettySize=auto;html=1;exitX=0;exitY=0.5;exitDx=0;exitDy=0;entryX=1;entryY=0.5;entryDx=0;entryDy=0;" edge="1" parent="1" source="67s3HKJAvQEWxq8m1dnF-6" target="67s3HKJAvQEWxq8m1dnF-13">
          <mxGeometry relative="1" as="geometry" />
        </mxCell>
      </root>
    </mxGraphModel>
  </diagram>
</mxfile>
